<?xml version="1.0" encoding="UTF-8"?>
<svg width="46px" height="43px" viewBox="0 0 46 43" version="1.1" xmlns="http://www.w3.org/2000/svg" xmlns:xlink="http://www.w3.org/1999/xlink">
    <!-- Generator: Sketch 43.2 (39069) - http://www.bohemiancoding.com/sketch -->
    <title>cat</title>
    <desc>Created with Sketch.</desc>
    <defs>
        <filter x="-18.5%" y="-14.3%" width="137.6%" height="140.0%" filterUnits="objectBoundingBox" id="filter-1">
            <feOffset dx="0" dy="2" in="SourceAlpha" result="shadowOffsetOuter1"></feOffset>
            <feGaussianBlur stdDeviation="2" in="shadowOffsetOuter1" result="shadowBlurOuter1"></feGaussianBlur>
            <feColorMatrix values="0 0 0 0 0   0 0 0 0 0   0 0 0 0 0  0 0 0 0.5 0" type="matrix" in="shadowBlurOuter1" result="shadowMatrixOuter1"></feColorMatrix>
            <feMerge>
                <feMergeNode in="shadowMatrixOuter1"></feMergeNode>
                <feMergeNode in="SourceGraphic"></feMergeNode>
            </feMerge>
        </filter>
    </defs>
    <g id="Page-1" stroke="none" stroke-width="1" fill="none" fill-rule="evenodd">
        <g id="Sketch-icons-" transform="translate(-513.000000, -71.000000)">
            <g id="coloricons" transform="translate(421.649100, 67.379044)">
                <g id="cat" filter="url(#filter-1)" transform="translate(95.550129, 6.087298)">
                    <path d="M12.7646206,4.35241819 L13.1180684,4.0687501 C11.379056,1.94002193 6.04604396,-1.0616248 3.90019846,0.662906771 C1.75435296,2.38804707 3.60811311,8.18619858 5.34712545,10.3149267 L5.72082288,10.0142142 C7.4518581,7.50746483 9.89653882,5.52483182 12.7646206,4.35241819" id="Fill-116" fill="#EF9884"></path>
                    <path d="M31.8618478,10.0148229 L32.2349316,10.3149267 C33.973944,8.18619858 35.8277041,2.38804707 33.6818586,0.662906771 C31.5360131,-1.0616248 26.203001,1.94002193 24.4639887,4.0687501 L24.8174365,4.35241819 C27.6855183,5.52483182 30.130199,7.50746483 31.8618478,10.0148229" id="Fill-117" fill="#EF9884"></path>
                    <path d="M34.6249997,18.6807006 C34.6249997,27.3557092 27.5357938,34.3883648 18.7910285,34.3883648 C10.0462632,34.3883648 2.95705733,27.3557092 2.95705733,18.6807006 C2.95705733,10.005692 10.0462632,2.97364516 18.7910285,2.97364516 C27.5357938,2.97364516 34.6249997,10.005692 34.6249997,18.6807006" id="Fill-118" fill="#F4F3F2"></path>
                    <path d="M9.07428175,21.3597205 L0.873187918,21.3597205 C0.56269383,21.3597205 0.311721337,21.1101413 0.311721337,20.8027328 C0.311721337,20.4947155 0.56269383,20.245745 0.873187918,20.245745 L9.07428175,20.245745 C9.38477584,20.245745 9.63574833,20.4947155 9.63574833,20.8027328 C9.63574833,21.1101413 9.38477584,21.3597205 9.07428175,21.3597205" id="Fill-119" fill="#4A4A4A"></path>
                    <path d="M1.04807095,25.0236653 C0.797098458,25.0236653 0.567602828,24.8550472 0.504399486,24.6018155 C0.428310026,24.3035379 0.611783805,24.0009992 0.912459897,23.9261255 L8.93805707,21.933144 C9.23873316,21.8613139 9.54431825,22.0396717 9.61856684,22.3385581 C9.6946563,22.6368357 9.51118252,22.9393744 9.21112005,23.0136395 L1.18552288,25.0072296 C1.13950103,25.0181867 1.09347918,25.0236653 1.04807095,25.0236653" id="Fill-120" fill="#4A4A4A"></path>
                    <path d="M9.07489537,19.6887572 C9.02948715,19.6887572 8.98407892,19.6832786 8.93805707,19.6717128 L0.912459897,17.6787313 C0.611783805,17.6038576 0.428310026,17.3013189 0.504399486,17.0030412 C0.579261697,16.7041549 0.883005913,16.5239709 1.18552288,16.5976272 L9.21112005,18.5912173 C9.51118252,18.6660911 9.6946563,18.9686298 9.61856684,19.2669074 C9.5553635,19.520139 9.32586787,19.6887572 9.07489537,19.6887572" id="Fill-121" fill="#4A4A4A"></path>
                    <path d="M36.7088692,21.3597205 L28.5077753,21.3597205 C28.1972812,21.3597205 27.9463087,21.1101413 27.9463087,20.8027328 C27.9463087,20.4947155 28.1972812,20.245745 28.5077753,20.245745 L36.7088692,20.245745 C37.0193632,20.245745 37.2703357,20.4947155 37.2703357,20.8027328 C37.2703357,21.1101413 37.0193632,21.3597205 36.7088692,21.3597205" id="Fill-122" fill="#4A4A4A"></path>
                    <path d="M36.5339861,25.0236653 C36.4885779,25.0236653 36.442556,25.0181867 36.3965342,25.0072296 L28.370937,23.0136395 C28.0708746,22.9393744 27.8874008,22.6368357 27.9628766,22.3385581 C28.0383524,22.039063 28.3420967,21.8600965 28.644,21.933144 L36.6695972,23.9261255 C36.9702733,24.0009992 37.1531334,24.3035379 37.0776576,24.6018155 C37.0138406,24.8550472 36.7849586,25.0236653 36.5339861,25.0236653" id="Fill-123" fill="#4A4A4A"></path>
                    <path d="M28.5071617,19.6887572 C28.2561892,19.6887572 28.0266936,19.520139 27.9628766,19.2669074 C27.8874008,18.9686298 28.0708746,18.6660911 28.370937,18.5912173 L36.3965342,16.5976272 C36.6972103,16.5257971 37.003409,16.7041549 37.0776576,17.0030412 C37.1531334,17.3013189 36.9702733,17.6038576 36.6695972,17.6787313 L28.644,19.6717128 C28.5979781,19.6832786 28.5525699,19.6887572 28.5071617,19.6887572" id="Fill-124" fill="#4A4A4A"></path>
                    <path d="M13.532265,15.5360024 C13.532265,16.4405749 12.7928473,17.1740943 11.881001,17.1740943 C10.9691548,17.1740943 10.229737,16.4405749 10.229737,15.5360024 C10.229737,14.6314299 10.9691548,13.8979104 11.881001,13.8979104 C12.7928473,13.8979104 13.532265,14.6314299 13.532265,15.5360024" id="Fill-125" fill="#4A4A4A"></path>
                    <path d="M27.3523201,15.5360024 C27.3523201,16.4405749 26.6129023,17.1740943 25.701056,17.1740943 C24.7892098,17.1740943 24.049792,16.4405749 24.049792,15.5360024 C24.049792,14.6314299 24.7892098,13.8979104 25.701056,13.8979104 C26.6129023,13.8979104 27.3523201,14.6314299 27.3523201,15.5360024" id="Fill-126" fill="#4A4A4A"></path>
                    <path d="M24.3351275,23.4251408 C24.0479512,23.4251408 23.816001,23.6558494 23.816001,23.9401262 C23.816001,25.1728041 22.8053612,26.1747734 21.5633848,26.1747734 C20.3214085,26.1747734 19.310155,25.1728041 19.310155,23.9401262 L19.310155,22.6904039 C19.310155,22.6599674 19.2978825,22.6337921 19.2929735,22.6051817 C19.957529,22.3933438 20.4422925,21.782179 20.4422925,21.052312 C20.4422925,20.1477395 19.7028748,19.4148288 18.7910285,19.4148288 C17.8791823,19.4148288 17.1397645,20.1477395 17.1397645,21.052312 C17.1397645,21.782179 17.624528,22.3933438 18.2890835,22.6051817 C18.2841746,22.6337921 18.2719021,22.6599674 18.2719021,22.6904039 L18.2719021,23.9401262 C18.2719021,25.1728041 17.2606486,26.1747734 16.0186722,26.1747734 C14.7766959,26.1747734 13.766056,25.1728041 13.766056,23.9401262 C13.766056,23.6558494 13.5334923,23.4251408 13.2469296,23.4251408 C12.9597532,23.4251408 12.7271895,23.6558494 12.7271895,23.9401262 C12.7271895,25.740749 14.2035704,27.205353 16.0186722,27.205353 C17.1833319,27.205353 18.2056306,26.6008843 18.7910285,25.6932681 C19.3764265,26.6008843 20.3987252,27.205353 21.5633848,27.205353 C23.3784866,27.205353 24.8548676,25.740749 24.8548676,23.9401262 C24.8548676,23.6558494 24.6223039,23.4251408 24.3351275,23.4251408" id="Fill-127" fill="#4A4A4A"></path>
                </g>
            </g>
        </g>
    </g>
</svg>