<?xml version="1.0" encoding="UTF-8"?>
<svg width="54px" height="50px" viewBox="0 0 54 50" version="1.1" xmlns="http://www.w3.org/2000/svg" xmlns:xlink="http://www.w3.org/1999/xlink">
    <!-- Generator: Sketch 43.2 (39069) - http://www.bohemiancoding.com/sketch -->
    <title>cat</title>
    <desc>Created with Sketch.</desc>
    <defs></defs>
    <g id="Page-1" stroke="none" stroke-width="1" fill="none" fill-rule="evenodd">
        <g id="Sketch-icons-" transform="translate(-517.000000, -73.000000)">
            <g id="coloricons" transform="translate(421.649100, 67.379044)">
                <g id="cat" transform="translate(95.550129, 6.087298)">
                    <path d="M18.2351722,6.21774027 L18.7400977,5.81250014 C16.2557943,2.77145989 8.63720566,-1.51660686 5.57171208,0.947009672 C2.50621851,3.41149582 5.1544473,11.6945694 7.63875064,14.7356096 L8.17260411,14.3060203 C10.6455116,10.7249498 14.1379126,7.89261688 18.2351722,6.21774027" id="Fill-116" fill="#EF9884"></path>
                    <path d="M45.5169254,14.3068899 L46.0499023,14.7356096 C48.5342057,11.6945694 51.1824344,3.41149582 48.1169409,0.947009672 C45.0514473,-1.51660686 37.4328586,2.77145989 34.9485553,5.81250014 L35.4534807,6.21774027 C39.5507404,7.89261688 43.0431414,10.7249498 45.5169254,14.3068899" id="Fill-117" fill="#EF9884"></path>
                    <path d="M49.4642853,26.6867152 C49.4642853,39.0795846 39.3368483,49.1262354 26.8443265,49.1262354 C14.3518046,49.1262354 4.22436761,39.0795846 4.22436761,26.6867152 C4.22436761,14.2938457 14.3518046,4.24806451 26.8443265,4.24806451 C39.3368483,4.24806451 49.4642853,14.2938457 49.4642853,26.6867152" id="Fill-118" fill="#F4F3F2"></path>
                    <path d="M12.9632596,30.5138865 L1.24741131,30.5138865 C0.803848329,30.5138865 0.445316195,30.1573447 0.445316195,29.7181897 C0.445316195,29.278165 0.803848329,28.9224928 1.24741131,28.9224928 L12.9632596,28.9224928 C13.4068226,28.9224928 13.7653548,29.278165 13.7653548,29.7181897 C13.7653548,30.1573447 13.4068226,30.5138865 12.9632596,30.5138865" id="Fill-119" fill="#4A4A4A"></path>
                    <path d="M1.49724422,35.7480933 C1.13871208,35.7480933 0.810861183,35.5072102 0.720570694,35.1454508 C0.611871465,34.7193399 0.873976864,34.2871417 1.30351414,34.1801792 L12.768653,31.3330629 C13.1981902,31.2304484 13.6347404,31.4852454 13.7408098,31.9122258 C13.849509,32.3383367 13.5874036,32.7705349 13.1587429,32.8766278 L1.69360411,35.7246137 C1.62785861,35.7402668 1.56211311,35.7480933 1.49724422,35.7480933" id="Fill-120" fill="#4A4A4A"></path>
                    <path d="M12.9641362,28.126796 C12.8992674,28.126796 12.8343985,28.1189695 12.768653,28.1024468 L1.30351414,25.2553305 C0.873976864,25.148368 0.611871465,24.7161698 0.720570694,24.2900589 C0.82751671,23.8630784 1.26143702,23.6056727 1.69360411,23.710896 L13.1587429,26.5588819 C13.5874036,26.6658444 13.849509,27.0980426 13.7408098,27.5241535 C13.6505193,27.8859129 13.3226684,28.126796 12.9641362,28.126796" id="Fill-121" fill="#4A4A4A"></path>
                    <path d="M52.4412416,30.5138865 L40.7253933,30.5138865 C40.2818303,30.5138865 39.9232982,30.1573447 39.9232982,29.7181897 C39.9232982,29.278165 40.2818303,28.9224928 40.7253933,28.9224928 L52.4412416,28.9224928 C52.8848046,28.9224928 53.2433368,29.278165 53.2433368,29.7181897 C53.2433368,30.1573447 52.8848046,30.5138865 52.4412416,30.5138865" id="Fill-122" fill="#4A4A4A"></path>
                    <path d="M52.1914087,35.7480933 C52.1265398,35.7480933 52.0607943,35.7402668 51.9950488,35.7246137 L40.52991,32.8766278 C40.1012494,32.7705349 39.839144,32.3383367 39.9469666,31.9122258 C40.0547892,31.4843757 40.4887095,31.2287092 40.92,31.3330629 L52.3851388,34.1801792 C52.8146761,34.2871417 53.0759049,34.7193399 52.9680823,35.1454508 C52.8769152,35.5072102 52.5499409,35.7480933 52.1914087,35.7480933" id="Fill-123" fill="#4A4A4A"></path>
                    <path d="M40.7245167,28.126796 C40.3659846,28.126796 40.0381337,27.8859129 39.9469666,27.5241535 C39.839144,27.0980426 40.1012494,26.6658444 40.52991,26.5588819 L51.9950488,23.710896 C52.4245861,23.6082815 52.8620129,23.8630784 52.9680823,24.2900589 C53.0759049,24.7161698 52.8146761,25.148368 52.3851388,25.2553305 L40.92,28.1024468 C40.8542545,28.1189695 40.7893856,28.126796 40.7245167,28.126796" id="Fill-124" fill="#4A4A4A"></path>
                    <path d="M19.3318072,22.1942891 C19.3318072,23.4865356 18.2754961,24.5344205 16.9728586,24.5344205 C15.6702211,24.5344205 14.61391,23.4865356 14.61391,22.1942891 C14.61391,20.9020427 15.6702211,19.8541578 16.9728586,19.8541578 C18.2754961,19.8541578 19.3318072,20.9020427 19.3318072,22.1942891" id="Fill-125" fill="#4A4A4A"></path>
                    <path d="M39.0747429,22.1942891 C39.0747429,23.4865356 38.0184319,24.5344205 36.7157943,24.5344205 C35.4131568,24.5344205 34.3568458,23.4865356 34.3568458,22.1942891 C34.3568458,20.9020427 35.4131568,19.8541578 36.7157943,19.8541578 C38.0184319,19.8541578 39.0747429,20.9020427 39.0747429,22.1942891" id="Fill-126" fill="#4A4A4A"></path>
                    <path d="M34.7644679,33.4644869 C34.3542159,33.4644869 34.0228586,33.7940706 34.0228586,34.2001803 C34.0228586,35.9611487 32.5790874,37.3925334 30.8048355,37.3925334 C29.0305835,37.3925334 27.5859357,35.9611487 27.5859357,34.2001803 L27.5859357,32.4148627 C27.5859357,32.371382 27.5684036,32.3339886 27.5613907,32.2931168 C28.5107558,31.9904911 29.2032751,31.1173986 29.2032751,30.0747314 C29.2032751,28.782485 28.146964,27.7354697 26.8443265,27.7354697 C25.5416889,27.7354697 24.4853779,28.782485 24.4853779,30.0747314 C24.4853779,31.1173986 25.1778972,31.9904911 26.1272622,32.2931168 C26.1202494,32.3339886 26.1027172,32.371382 26.1027172,32.4148627 L26.1027172,34.2001803 C26.1027172,35.9611487 24.6580694,37.3925334 22.8838175,37.3925334 C21.1095656,37.3925334 19.6657943,35.9611487 19.6657943,34.2001803 C19.6657943,33.7940706 19.3335604,33.4644869 18.9241851,33.4644869 C18.5139332,33.4644869 18.1816992,33.7940706 18.1816992,34.2001803 C18.1816992,36.7724986 20.2908149,38.86479 22.8838175,38.86479 C24.547617,38.86479 26.0080437,38.0012632 26.8443265,36.7046687 C27.6806093,38.0012632 29.141036,38.86479 30.8048355,38.86479 C33.397838,38.86479 35.5069537,36.7724986 35.5069537,34.2001803 C35.5069537,33.7940706 35.1747198,33.4644869 34.7644679,33.4644869" id="Fill-127" fill="#4A4A4A"></path>
                </g>
            </g>
        </g>
    </g>
</svg>