<?xml version="1.0" encoding="UTF-8"?>
<svg width="53px" height="52px" viewBox="0 0 53 52" version="1.1" xmlns="http://www.w3.org/2000/svg" xmlns:xlink="http://www.w3.org/1999/xlink">
    <!-- Generator: Sketch 43.2 (39069) - http://www.bohemiancoding.com/sketch -->
    <title>cat</title>
    <desc>Created with Sketch.</desc>
    <defs></defs>
    <g id="Page-1" stroke="none" stroke-width="1" fill="none" fill-rule="evenodd">
        <g id="Sketch-icons-" transform="translate(-147.000000, -72.000000)" fill="#4A4A4A">
            <g id="stroke-icons" transform="translate(50.500000, 66.509430)">
                <path d="M116.47473,29.5599199 C116.47473,27.8641726 115.084432,26.4840951 113.374172,26.4840951 C111.664789,26.4840951 110.273614,27.8641726 110.273614,29.5599199 C110.273614,31.2565369 111.664789,32.6366143 113.374172,32.6366143 C115.084432,32.6366143 116.47473,31.2565369 116.47473,29.5599199 L116.47473,29.5599199 Z M113.374172,31.1643578 C112.482663,31.1643578 111.75771,30.445187 111.75771,29.5599199 C111.75771,28.6763921 112.482663,27.9563516 113.374172,27.9563516 C114.265681,27.9563516 114.991512,28.6763921 114.991512,29.5599199 C114.991512,30.445187 114.265681,31.1643578 113.374172,31.1643578 L113.374172,31.1643578 Z M144.257026,39.8152781 L137.749098,38.1995352 C137.352871,38.1056169 136.949632,38.3412823 136.849699,38.7352175 C136.749766,39.1291526 136.990833,39.5283055 137.388812,39.6274415 L143.800314,41.2197047 C140.733067,49.5340844 132.676175,55.4848532 123.24564,55.4848532 C113.815105,55.4848532 105.75909,49.5340844 102.691843,41.2197047 L109.102468,39.6274415 C109.500447,39.5283055 109.741514,39.1291526 109.642458,38.7352175 C109.542524,38.3412823 109.141039,38.1056169 108.742183,38.1995352 L102.234254,39.8152781 C102.00809,39.040452 101.824003,38.2491032 101.684622,37.4421014 L108.922763,37.4421014 C109.332139,37.4421014 109.664373,37.1125177 109.664373,36.7055383 C109.664373,36.298559 109.332139,35.9689753 108.922763,35.9689753 L101.47862,35.9689753 C101.405861,35.2498045 101.36729,34.5201983 101.36729,33.781896 C101.36729,33.6471058 101.37518,33.5157941 101.37781,33.3818735 L108.742183,35.2106718 C108.802668,35.2254553 108.863154,35.2332818 108.922763,35.2332818 C109.255874,35.2332818 109.557427,35.009791 109.642458,34.6749896 C109.741514,34.2810544 109.500447,33.8819016 109.102468,33.781896 L101.455828,31.8835286 C101.796828,28.0015716 103.171347,24.4100657 105.305884,21.3803304 C105.525036,21.0698782 105.752077,20.7663829 105.985254,20.4689749 C106.074668,20.3550555 106.163206,20.241136 106.254373,20.1298254 C106.524368,19.7993721 106.802252,19.4767453 107.089779,19.1636842 C107.196725,19.047156 107.308054,18.9358454 107.41763,18.8219259 C107.623632,18.6071313 107.834018,18.3966847 108.048787,18.1905862 C108.182031,18.0627529 108.315275,17.93405 108.451149,17.8096952 C108.750949,17.5366364 109.056008,17.2705345 109.369833,17.014868 C109.496941,16.9113839 109.627555,16.8139872 109.757293,16.7131119 C110.00362,16.5209272 110.254329,16.3330906 110.508545,16.1522109 C110.633023,16.0635103 110.756625,15.97394 110.882856,15.8878482 C111.253661,15.6365298 111.629725,15.3930378 112.016308,15.1643294 C112.078548,15.1269359 112.14254,15.0921514 112.205656,15.0556276 C112.592239,14.8312672 112.985835,14.6173421 113.387321,14.4164613 C113.429398,14.3947209 113.470599,14.3729806 113.512676,14.3529795 C113.972895,14.1260102 114.441003,13.9129548 114.91963,13.7172916 C114.923136,13.716422 114.925766,13.7138132 114.929272,13.7120739 C117.4951,12.6615802 120.301995,12.0789388 123.24564,12.0789388 C126.189285,12.0789388 128.997057,12.6615802 131.562884,13.7120739 C131.566391,13.7129435 131.569021,13.716422 131.572527,13.7172916 C132.050278,13.9129548 132.519262,14.1260102 132.979481,14.3529795 C133.020681,14.3729806 133.062758,14.3947209 133.103959,14.4164613 C133.505445,14.6173421 133.899041,14.8312672 134.285625,15.0556276 C134.34874,15.0921514 134.412733,15.1269359 134.475848,15.1643294 C134.861555,15.3930378 135.238496,15.6365298 135.608424,15.8878482 C135.734656,15.97394 135.858257,16.0635103 135.982735,16.1522109 C136.236951,16.3330906 136.486784,16.5209272 136.733111,16.7122423 C136.862848,16.8131175 136.995216,16.9113839 137.122324,17.0157376 C137.435272,17.2705345 137.740332,17.5366364 138.039254,17.8088256 C138.176882,17.93405 138.311003,18.0636225 138.445123,18.193195 C138.657262,18.3966847 138.865895,18.605392 139.070144,18.8184475 C139.181473,18.9341061 139.295432,19.047156 139.403254,19.1654235 C139.689905,19.4767453 139.966036,19.7976329 140.234278,20.126347 C140.328075,20.241136 140.419242,20.3585339 140.511285,20.4750622 C140.739203,20.7663829 140.960985,21.0629213 141.174877,21.3664166 C143.31555,24.3987607 144.693576,27.9946147 145.035452,31.8835286 L137.388812,33.781896 C136.990833,33.8819016 136.749766,34.2810544 136.849699,34.6749896 C136.933853,35.009791 137.236283,35.2332818 137.568517,35.2332818 C137.628126,35.2332818 137.688612,35.2254553 137.749098,35.2106718 L145.11347,33.3818735 C145.1161,33.5157941 145.12399,33.6471058 145.12399,33.781896 C145.12399,34.5201983 145.086296,35.2498045 145.013537,35.9689753 L137.569393,35.9689753 C137.159141,35.9689753 136.826907,36.298559 136.826907,36.7055383 C136.826907,37.1125177 137.159141,37.4421014 137.569393,37.4421014 L144.806658,37.4421014 C144.668154,38.2491032 144.484067,39.040452 144.257026,39.8152781 L144.257026,39.8152781 Z M104.145257,20.4489738 C103.103848,18.8888862 102.121172,16.4878819 101.651311,14.2912369 C101.035057,11.4058575 101.322584,9.23617055 102.440257,8.33785926 C102.910118,7.96044678 103.566697,7.76913169 104.391584,7.76913169 C107.352761,7.76913169 111.790144,10.2240521 114.021985,12.4928751 C113.559136,12.6911471 113.105931,12.9059417 112.658861,13.132911 C112.595746,13.1642171 112.533506,13.1963928 112.471267,13.2285685 C112.034717,13.4537986 111.604303,13.689464 111.184409,13.9407824 C111.173013,13.9477393 111.16074,13.9546962 111.148468,13.9616532 C110.758378,14.1964489 110.377931,14.4460282 110.00362,14.7034339 C109.851967,14.8060484 109.70382,14.9130109 109.554797,15.0199734 C109.323373,15.1869393 109.095455,15.3582533 108.870167,15.5330457 C108.715884,15.6530524 108.559848,15.7695807 108.409072,15.8930659 C108.096123,16.1487324 107.790188,16.4139647 107.490388,16.6861539 C107.329093,16.8322491 107.173057,16.9844315 107.015267,17.1357443 C106.83118,17.312276 106.650599,17.4914165 106.472648,17.6731658 C106.327131,17.8227394 106.180738,17.9705738 106.039604,18.1236259 C105.752077,18.4340781 105.47244,18.7514872 105.202445,19.0767228 C105.106895,19.1923815 105.016604,19.3115186 104.923684,19.4289165 C104.712422,19.6932792 104.506419,19.9628595 104.306553,20.236788 C104.253956,20.3089659 104.1961,20.3759262 104.145257,20.4489738 L104.145257,20.4489738 Z M142.099697,7.76913169 C142.924584,7.76913169 143.581162,7.96044678 144.051023,8.33785926 C145.168697,9.23617055 145.456224,11.4058575 144.839969,14.2912369 C144.370108,16.4878819 143.387432,18.8888862 142.3469,20.4472345 C142.29255,20.3707085 142.231188,20.3002698 142.175961,20.2237437 C141.982231,19.9593811 141.783242,19.6993665 141.578992,19.4428304 C141.480812,19.3193452 141.386139,19.1932511 141.285329,19.0723748 C141.017087,18.7488784 140.739203,18.4340781 140.453429,18.1262347 C140.310542,17.9714434 140.163272,17.8218698 140.016879,17.6714266 C139.838928,17.4896773 139.659224,17.3105368 139.476013,17.1348747 C139.3191,16.9844315 139.163064,16.8331187 139.001769,16.6870235 C138.701969,16.4139647 138.395157,16.1487324 138.080455,15.8913267 C137.931432,15.7695807 137.778026,15.6547917 137.626373,15.5365242 C137.398455,15.3599925 137.167907,15.1860697 136.932977,15.0173646 C136.786584,14.9121413 136.64019,14.806918 136.49029,14.7043035 C136.114226,14.4468978 135.732902,14.1964489 135.341059,13.9607835 C135.332293,13.9555659 135.32265,13.9503482 135.313884,13.9451305 C134.89136,13.6912032 134.45744,13.4546682 134.01826,13.2268293 C133.956897,13.1955232 133.895535,13.1642171 133.834172,13.1337806 C133.387103,12.9068113 132.933021,12.6911471 132.470172,12.4928751 C134.702013,10.2240521 139.138519,7.76913169 142.099697,7.76913169 L142.099697,7.76913169 Z M148.405129,37.4421014 C148.81538,37.4421014 149.146738,37.1125177 149.146738,36.7055383 C149.146738,36.298559 148.81538,35.9689753 148.405129,35.9689753 L146.500262,35.9689753 C146.568638,35.2489349 146.608085,34.5193287 146.608085,33.781896 C146.608085,33.5244902 146.596689,33.2705629 146.587923,33.015766 L148.353409,32.5774806 C148.751388,32.477475 148.992455,32.0791917 148.893398,31.684387 C148.793465,31.2904518 148.393733,31.0547864 147.993123,31.1487047 L146.495003,31.5208995 C146.14699,27.9763528 144.994252,24.6622537 143.215617,21.7646998 C144.505982,20.0637348 145.726219,17.2427069 146.29163,14.5964714 C147.038499,11.100623 146.573897,8.47177982 144.984609,7.19431682 C144.244753,6.59950083 143.273473,6.29687515 142.099697,6.29687515 C138.24701,6.29687515 133.097823,9.54227469 130.991337,11.920669 C128.565766,11.0727954 125.960491,10.6058126 123.24564,10.6058126 C120.531666,10.6058126 117.925514,11.0727954 115.499943,11.920669 C113.393458,9.54227469 108.245147,6.29687515 104.391584,6.29687515 C103.217807,6.29687515 102.247404,6.59950083 101.506671,7.19431682 C99.917383,8.47177982 99.4536581,11.100623 100.200527,14.5964714 C100.765938,17.2427069 101.985298,20.0637348 103.27654,21.7646998 C101.497905,24.6622537 100.34429,27.9763528 99.9962776,31.5208995 L98.4981568,31.1487047 C98.101054,31.0547864 97.6986915,31.2904518 97.5987584,31.684387 C97.4988252,32.0791917 97.739892,32.477475 98.1378715,32.5774806 L99.9033573,33.015766 C99.8954679,33.2705629 99.884072,33.5244902 99.884072,33.781896 C99.884072,34.5193287 99.9226427,35.2489349 99.991018,35.9689753 L98.0861517,35.9689753 C97.6758997,35.9689753 97.3436658,36.298559 97.3436658,36.7055383 C97.3436658,37.1125177 97.6758997,37.4421014 98.0861517,37.4421014 L100.177735,37.4421014 C100.327635,38.3717188 100.536267,39.2822047 100.794866,40.1726895 L98.1378715,40.8327265 C97.739892,40.9318625 97.4988252,41.3310153 97.5987584,41.7249505 C97.6829126,42.0597519 97.9853419,42.2832427 98.3175758,42.2832427 C98.3771851,42.2832427 98.437671,42.2754162 98.4981568,42.2606327 L101.248072,41.5779857 C104.482751,50.5324013 113.120833,56.9571097 123.24564,56.9571097 C133.371324,56.9571097 142.009406,50.5324013 145.244085,41.5779857 L147.993123,42.2606327 C148.053609,42.2754162 148.114095,42.2832427 148.173704,42.2832427 C148.506815,42.2832427 148.808368,42.0597519 148.893398,41.7249505 C148.992455,41.3310153 148.751388,40.9318625 148.353409,40.8327265 L145.69729,40.1726895 C145.955013,39.2822047 146.163645,38.3717188 146.313545,37.4421014 L148.405129,37.4421014 L148.405129,37.4421014 Z M121.629177,36.7055383 C121.629177,35.8202713 122.355008,35.1011005 123.24564,35.1011005 C124.137149,35.1011005 124.862103,35.8202713 124.862103,36.7055383 C124.862103,37.5899358 124.137149,38.3091066 123.24564,38.3091066 C122.355008,38.3091066 121.629177,37.5899358 121.629177,36.7055383 L121.629177,36.7055383 Z M131.165781,40.0935546 C130.756406,40.0935546 130.424172,40.4231383 130.424172,40.8301177 C130.424172,42.5902164 128.980401,44.0224707 127.206149,44.0224707 C125.431021,44.0224707 123.987249,42.5902164 123.987249,40.8301177 L123.987249,39.6822271 C125.3381,39.3500346 126.346198,38.1464888 126.346198,36.7055383 C126.346198,35.0089214 124.955023,33.6288439 123.24564,33.6288439 C121.536257,33.6288439 120.145959,35.0089214 120.145959,36.7055383 C120.145959,38.1464888 121.15318,39.3500346 122.504031,39.6822271 L122.504031,40.8301177 C122.504031,42.5902164 121.06026,44.0224707 119.286008,44.0224707 C117.510879,44.0224707 116.067108,42.5902164 116.067108,40.8301177 C116.067108,40.4231383 115.734874,40.0935546 115.325499,40.0935546 C114.916123,40.0935546 114.583889,40.4231383 114.583889,40.8301177 C114.583889,43.4024359 116.693005,45.4947273 119.286008,45.4947273 C120.952437,45.4947273 122.410234,44.6242436 123.24564,43.3224315 C124.081046,44.6242436 125.538843,45.4947273 127.206149,45.4947273 C129.798275,45.4947273 131.907391,43.4024359 131.907391,40.8301177 C131.907391,40.4231383 131.576033,40.0935546 131.165781,40.0935546 L131.165781,40.0935546 Z M133.117108,31.1643578 C132.225599,31.1643578 131.500645,30.445187 131.500645,29.5599199 C131.500645,28.6763921 132.225599,27.9563516 133.117108,27.9563516 C134.008617,27.9563516 134.734447,28.6763921 134.734447,29.5599199 C134.734447,30.445187 134.008617,31.1643578 133.117108,31.1643578 L133.117108,31.1643578 Z M133.117108,26.4840951 C131.407725,26.4840951 130.01655,27.8641726 130.01655,29.5599199 C130.01655,31.2565369 131.407725,32.6366143 133.117108,32.6366143 C134.827368,32.6366143 136.217666,31.2565369 136.217666,29.5599199 C136.217666,27.8641726 134.827368,26.4840951 133.117108,26.4840951 L133.117108,26.4840951 Z" id="cat"></path>
            </g>
        </g>
    </g>
</svg>