<?xml version="1.0" encoding="UTF-8"?>
<svg width="76px" height="54px" viewBox="0 0 76 54" version="1.1" xmlns="http://www.w3.org/2000/svg" xmlns:xlink="http://www.w3.org/1999/xlink">
    <!-- Generator: Sketch 43.2 (39069) - http://www.bohemiancoding.com/sketch -->
    <title>dog</title>
    <desc>Created with Sketch.</desc>
    <defs>
        <filter x="-10.3%" y="-10.6%" width="120.6%" height="129.8%" filterUnits="objectBoundingBox" id="filter-1">
            <feOffset dx="0" dy="2" in="SourceAlpha" result="shadowOffsetOuter1"></feOffset>
            <feGaussianBlur stdDeviation="2" in="shadowOffsetOuter1" result="shadowBlurOuter1"></feGaussianBlur>
            <feColorMatrix values="0 0 0 0 0   0 0 0 0 0   0 0 0 0 0  0 0 0 0.5 0" type="matrix" in="shadowBlurOuter1" result="shadowMatrixOuter1"></feColorMatrix>
            <feMerge>
                <feMergeNode in="shadowMatrixOuter1"></feMergeNode>
                <feMergeNode in="SourceGraphic"></feMergeNode>
            </feMerge>
        </filter>
    </defs>
    <g id="Page-1" stroke="none" stroke-width="1" fill="none" fill-rule="evenodd">
        <g id="Sketch-icons-" transform="translate(-417.000000, -73.000000)">
            <g id="coloricons" transform="translate(421.649100, 67.379044)">
                <g id="dog" filter="url(#filter-1)" transform="translate(-0.000000, 6.956912)">
                    <path d="M56.6472005,23.8004662 C56.6472005,36.5055271 46.264671,46.8052356 33.4574473,46.8052356 C20.649347,46.8052356 10.2668175,36.5055271 10.2668175,23.8004662 C10.2668175,11.0954053 20.649347,0.795696832 33.4574473,0.795696832 C46.264671,0.795696832 56.6472005,11.0954053 56.6472005,23.8004662" id="Fill-63" fill="#EDD7A4"></path>
                    <path d="M25.2445193,18.8436663 C25.2445193,20.1350431 24.1890848,21.182928 22.8864473,21.182928 C21.5838098,21.182928 20.5274987,20.1350431 20.5274987,18.8436663 C20.5274987,17.5505502 21.5838098,16.5035349 22.8864473,16.5035349 C24.1890848,16.5035349 25.2445193,17.5505502 25.2445193,18.8436663" id="Fill-64" fill="#4A4A4A"></path>
                    <path d="M46.4715501,18.8436663 C46.4715501,20.1350431 45.4161157,21.182928 44.1134781,21.182928 C42.8108406,21.182928 41.7545296,20.1350431 41.7545296,18.8436663 C41.7545296,17.5505502 42.8108406,16.5035349 44.1134781,16.5035349 C45.4161157,16.5035349 46.4715501,17.5505502 46.4715501,18.8436663" id="Fill-65" fill="#4A4A4A"></path>
                    <path d="M19.7543316,5.24377257 L19.7552082,5.24203334 C11.7929897,5.24203334 0.117465296,16.7278954 0.117465296,24.6265995 C0.117465296,32.5253037 5.22106941,34.9767457 13.1832879,34.9767457 L13.1850411,34.971528 C11.3283882,31.6635162 10.2668175,27.8554764 10.2668175,23.8004662 C10.2668175,16.1809081 14.0029152,9.43096409 19.7543316,5.24377257" id="Fill-66" fill="#A38686"></path>
                    <path d="M47.7066889,5.24203334 L47.818018,5.74467024 C53.1933702,9.95795019 56.6472005,16.4774465 56.6472005,23.8004662 C56.6472005,27.5624165 55.7311465,31.1104417 54.116437,34.2454003 L54.2786093,34.9767457 C62.2408278,34.9767457 67.3453085,32.5253037 67.3453085,24.6265995 C67.3453085,16.7278954 55.6689075,5.24203334 47.7066889,5.24203334" id="Fill-67" fill="#A38686"></path>
                    <path d="M38.2770308,31.6556897 L38.2770308,37.9508256 C38.2770308,40.5535804 36.1302211,42.6841348 33.5065373,42.6841348 C30.8819769,42.6841348 28.7351671,40.5535804 28.7351671,37.9508256 L28.7351671,31.6374278 C31.4263496,31.4965503 33.5065373,30.5182346 33.5065373,28.2554989 C33.5065373,30.5191042 35.5858483,31.4965503 38.2787841,31.6374278 L38.2770308,31.6556897" id="Fill-68" fill="#F27794"></path>
                    <path d="M41.577455,28.6581302 C41.178599,28.5711688 40.7814961,28.8242264 40.6947121,29.2207704 C40.4492622,30.3434421 39.1492545,31.0973975 37.4600334,31.0973975 C36.2582057,31.0973975 34.2420103,30.8739067 34.2420103,29.377301 L34.2420103,27.5919834 C34.2420103,27.5485027 34.2244781,27.5111093 34.2165887,27.4693678 C35.1668303,27.1667421 35.858473,26.2945192 35.858473,25.251852 C35.858473,23.9596056 34.802162,22.9117207 33.4995244,22.9117207 C32.1968869,22.9117207 31.1414524,23.9596056 31.1414524,25.251852 C31.1414524,26.2945192 31.8330951,27.1676117 32.7824602,27.4693678 C32.7754473,27.5111093 32.7579152,27.5485027 32.7579152,27.5919834 L32.7579152,29.377301 C32.7579152,30.8739067 30.7417198,31.0973975 29.539892,31.0973975 C27.8497943,31.0973975 26.5497866,30.3434421 26.3043368,29.2207704 C26.2175527,28.8242264 25.8178201,28.5702991 25.4224704,28.6581302 C25.0218612,28.744222 24.7667686,29.1364179 24.8544293,29.5338315 C25.2515321,31.3495856 27.1344833,32.569654 29.539892,32.569654 C31.3772596,32.569654 32.7281105,32.1261509 33.4995244,31.314801 C34.2709383,32.1261509 35.6217892,32.569654 37.4600334,32.569654 C39.8645656,32.569654 41.7475167,31.3495856 42.1454961,29.5338315 C42.2322802,29.1364179 41.9780643,28.744222 41.577455,28.6581302" id="Fill-69" fill="#4A4A4A"></path>
                </g>
            </g>
        </g>
    </g>
</svg>