<?xml version="1.0" encoding="UTF-8"?>
<svg width="69px" height="49px" viewBox="0 0 69 49" version="1.1" xmlns="http://www.w3.org/2000/svg" xmlns:xlink="http://www.w3.org/1999/xlink">
    <!-- Generator: Sketch 43.2 (39069) - http://www.bohemiancoding.com/sketch -->
    <title>dog</title>
    <desc>Created with Sketch.</desc>
    <defs></defs>
    <g id="Page-1" stroke="none" stroke-width="1" fill="none" fill-rule="evenodd">
        <g id="Sketch-icons-" transform="translate(-51.000000, -74.000000)" fill="#4A4A4A">
            <g id="stroke-icons" transform="translate(50.500000, 66.509430)">
                <path d="M27.4398565,27.7253848 C27.4398565,26.0288942 26.0607513,24.6489195 24.3642607,24.6489195 C22.6686396,24.6489195 21.2886649,26.0288942 21.2886649,27.7253848 C21.2886649,29.4210059 22.6686396,30.8009806 24.3642607,30.8009806 C26.0607513,30.8009806 27.4398565,29.4210059 27.4398565,27.7253848 L27.4398565,27.7253848 Z M24.3642607,29.3279642 C23.4799291,29.3279642 22.7608118,28.6088469 22.7608118,27.7253848 C22.7608118,26.8410532 23.4799291,26.1219359 24.3642607,26.1219359 C25.2485923,26.1219359 25.9685791,26.8410532 25.9685791,27.7253848 C25.9685791,28.6088469 25.2485923,29.3279642 24.3642607,29.3279642 L24.3642607,29.3279642 Z M42.9047905,36.8026098 C42.5074065,36.7182635 42.1161093,36.9686937 42.0291544,37.3660777 C41.7865501,38.4877963 40.4970086,39.2425651 38.8205175,39.2425651 C37.6283655,39.2425651 35.6284021,39.0190909 35.6284021,37.5217271 L35.6284021,36.373922 C36.9683776,36.0417542 37.9683592,34.838298 37.9683592,33.3965853 C37.9683592,31.7009642 36.5883845,30.3209894 34.8927634,30.3209894 C33.1962728,30.3209894 31.8171676,31.7009642 31.8171676,33.3965853 C31.8171676,34.838298 32.8171493,36.0417542 34.1571247,36.373922 L34.1571247,37.5217271 C34.1571247,39.0190909 32.1562918,39.2425651 30.9641398,39.2425651 C29.2885183,39.2425651 27.9989767,38.4877963 27.7555029,37.3652082 C27.6694175,36.9678242 27.2737726,36.7182635 26.8807363,36.8026098 C26.4833523,36.8895647 26.2303135,37.2808619 26.3172684,37.6782459 C26.6433494,39.1816966 27.986803,40.2642855 29.7902482,40.5973229 C29.7885091,40.616453 29.7789441,40.6338439 29.7789441,40.6547131 L29.7789441,46.4859106 C29.7789441,49.3093371 32.0754237,51.6066864 34.8988503,51.6066864 C37.7222768,51.6066864 40.019626,49.3093371 40.019626,46.4859106 L40.0187564,40.6912342 L40.019626,40.6738432 L39.6944146,40.6573218 C41.6535091,40.3981961 43.1239169,39.2660429 43.4682585,37.6773764 C43.5543438,37.2808619 43.3021745,36.8886952 42.9047905,36.8026098 L42.9047905,36.8026098 Z M33.288445,33.3965853 C33.288445,32.5122536 34.0084318,31.7931364 34.8927634,31.7931364 C35.777095,31.7931364 36.4962123,32.5122536 36.4962123,33.3965853 C36.4962123,34.2809169 35.777095,35.0009037 34.8927634,35.0009037 C34.0084318,35.0009037 33.288445,34.2809169 33.288445,33.3965853 L33.288445,33.3965853 Z M34.8988503,50.1345394 C32.8867132,50.1345394 31.2502215,48.4980477 31.2502215,46.4859106 L31.2493519,40.6999297 C32.9223647,40.6547131 34.1692984,40.2260253 34.8927634,39.4599524 C35.6179675,40.2277644 36.8692489,40.6564522 38.5483486,40.7007992 L38.5483486,46.4859106 C38.5483486,48.4980477 36.9109873,50.1345394 34.8988503,50.1345394 L34.8988503,50.1345394 Z M56.2210683,42.3564211 C57.7627791,39.2103918 58.6314589,35.6782826 58.6314589,31.9453075 C58.6314589,24.9706527 55.608036,18.6898982 50.8029067,14.3430213 C58.1766846,15.9473398 67.6025988,25.8897663 67.6025988,32.7609447 C67.6025988,39.2703907 64.1765746,42.1659898 56.2210683,42.3564211 L56.2210683,42.3564211 Z M34.8927634,54.2127256 C22.613858,54.2127256 12.6253454,44.2242129 12.6253454,31.9453075 C12.6253454,19.6672716 22.613858,9.67875899 34.8927634,9.67875899 C47.1707993,9.67875899 57.1601815,19.6672716 57.1601815,31.9453075 C57.1601815,44.2242129 47.1707993,54.2127256 34.8927634,54.2127256 L34.8927634,54.2127256 Z M2.18205846,32.7609447 C2.18205846,25.8888967 11.6088422,15.9464702 18.9817506,14.3430213 C14.1774908,18.6898982 11.1531984,24.9706527 11.1531984,31.9453075 C11.1531984,35.6782826 12.0218782,39.2103918 13.563589,42.3564211 C5.60808264,42.1659898 2.18205846,39.2703907 2.18205846,32.7609447 L2.18205846,32.7609447 Z M69.0747458,32.7609447 C69.0747458,24.4880528 57.1714856,12.6421829 48.8585945,12.6421829 C48.8125084,12.6421829 48.7716395,12.6639217 48.7272925,12.6726172 C44.8291031,9.86571209 40.0526689,8.2057425 34.8927634,8.2057425 C29.732858,8.2057425 24.9564238,9.86571209 21.0573648,12.6726172 C21.0130178,12.6639217 20.9721489,12.6421829 20.9260628,12.6421829 C12.6131717,12.6421829 0.710781074,24.4880528 0.710781074,32.7609447 C0.710781074,42.6738066 8.48976897,43.8416113 14.3653135,43.8468285 C18.4808902,50.9180033 26.1381412,55.685742 34.8927634,55.685742 C43.6473856,55.685742 51.3037671,50.9180033 55.4193438,43.8468285 C61.2948883,43.8416113 69.0747458,42.6738066 69.0747458,32.7609447 L69.0747458,32.7609447 Z M45.4203966,29.3279642 C44.536065,29.3279642 43.8169477,28.6088469 43.8169477,27.7253848 C43.8169477,26.8410532 44.536065,26.1219359 45.4203966,26.1219359 C46.3047282,26.1219359 47.024715,26.8410532 47.024715,27.7253848 C47.024715,28.6088469 46.3047282,29.3279642 45.4203966,29.3279642 L45.4203966,29.3279642 Z M45.4203966,24.6489195 C43.7247755,24.6489195 42.3448008,26.0288942 42.3448008,27.7253848 C42.3448008,29.4210059 43.7247755,30.8009806 45.4203966,30.8009806 C47.1168873,30.8009806 48.4959924,29.4210059 48.4959924,27.7253848 C48.4959924,26.0288942 47.1168873,24.6489195 45.4203966,24.6489195 L45.4203966,24.6489195 Z" id="dog"></path>
            </g>
        </g>
    </g>
</svg>