<?xml version="1.0" encoding="UTF-8"?>
<svg width="151px" height="196px" viewBox="0 0 151 196" version="1.1" xmlns="http://www.w3.org/2000/svg" xmlns:xlink="http://www.w3.org/1999/xlink">
    <!-- Generator: Sketch 43.2 (39069) - http://www.bohemiancoding.com/sketch -->
    <title>logo</title>
    <desc>Created with Sketch.</desc>
    <defs></defs>
    <g id="Page-1" stroke="none" stroke-width="1" fill="none" fill-rule="evenodd">
        <g id="Artboard-1" transform="translate(-573.000000, -58.000000)">
            <g id="Group" transform="translate(113.551247, 46.000000)">
                <g id="logo" transform="translate(460.000000, 12.000000)">
                    <path d="M74.9587517,0 C34.3225418,0 0,34.3799092 0,75.0703331 C0,102.543508 12.6649364,132.053244 36.6192757,160.411335 C54.5920801,181.683825 72.2985511,194.672 73.0411513,195.214874 C73.6114181,195.632227 74.2882182,195.839335 74.9587517,195.839335 C75.6292852,195.839335 76.3060854,195.632227 76.8763522,195.214874 C77.6189524,194.672 95.3254234,181.683825 113.298228,160.411335 C137.252567,132.053244 149.917503,102.543508 149.917503,75.0703331 C149.917503,34.3799092 115.594962,0 74.9587517,0" id="Stroke-49" fill="#00D1B2"></path>
                    <g id="paw" transform="translate(31.000000, 45.000000)" stroke="#FFFFFF" stroke-width="2.25" fill="#FFFFFF" stroke-linecap="round" stroke-linejoin="round">
                        <path d="M41.614501,14.068181 C42.1702554,21.9024501 38.0588367,28.5809633 32.4300049,28.9847464 C26.801173,29.3885294 21.7877446,23.3654322 21.2319902,15.5311631 C20.6762358,7.69689407 24.7876545,1.01838085 30.4164863,0.6145978 C36.0453182,0.210814744 41.0587466,6.23391199 41.614501,14.068181 L41.614501,14.068181 Z" id="Stroke-79"></path>
                        <path d="M67.8096612,17.6908428 C66.75514,25.2244659 61.6190181,30.6944477 56.3363551,29.9083692 C51.0551288,29.1237709 47.6286531,22.3806675 48.6831743,14.8470444 C49.7376956,7.31490159 54.8738175,1.84491976 60.1550438,2.62951796 C65.4377068,3.41411617 68.8641825,10.1572196 67.8096612,17.6908428 L67.8096612,17.6908428 Z" id="Stroke-81"></path>
                        <path d="M88.2928099,37.2829066 C87.2382886,44.8165297 82.1021668,50.2865116 76.8195038,49.500433 C71.5382775,48.7158348 68.1118018,41.9727313 69.166323,34.4391082 C70.2208442,26.9069654 75.3569661,21.4369836 80.6381924,22.2215818 C85.9208554,23.00618 89.3473311,29.7492834 88.2928099,37.2829066 L88.2928099,37.2829066 Z" id="Stroke-83"></path>
                        <path d="M20.2812311,31.3747057 C22.5966235,38.48418 20.2929102,45.5980159 15.1336435,47.2641626 C9.97437683,48.9317633 3.9158152,44.5177829 1.59896284,37.4083086 C-0.716429626,30.2988343 1.58728369,23.1849984 6.74655038,21.5188517 C11.9058171,19.8527049 17.9658386,24.2652314 20.2812311,31.3747057 L20.2812311,31.3747057 Z" id="Stroke-85"></path>
                        <path d="M45.0786781,32.9223311 C55.5017228,32.9223311 73.852625,55.9810212 73.852625,68.6932576 C73.852625,84.2224599 64.7506473,82.5876528 62.6948458,82.5876528 C60.6404992,82.5876528 52.7126417,77.8575524 45.0786781,77.8575524 C37.4447144,77.8575524 30.3985383,82.8820939 25.7006026,82.8820939 C20.1108011,82.8820939 16.3047311,75.4917698 16.3047311,68.1014457 C16.3047311,60.7111216 33.592087,32.9223311 45.0786781,32.9223311 L45.0786781,32.9223311 Z" id="Stroke-87"></path>
                    </g>
                </g>
            </g>
        </g>
    </g>
</svg>