<?xml version="1.0" encoding="UTF-8"?>
<svg width="59px" height="43px" viewBox="0 0 59 43" version="1.1" xmlns="http://www.w3.org/2000/svg" xmlns:xlink="http://www.w3.org/1999/xlink">
    <!-- Generator: Sketch 43.2 (39069) - http://www.bohemiancoding.com/sketch -->
    <title>dog</title>
    <desc>Created with Sketch.</desc>
    <defs>
        <filter x="-13.8%" y="-14.3%" width="128.4%" height="140.0%" filterUnits="objectBoundingBox" id="filter-1">
            <feOffset dx="0" dy="2" in="SourceAlpha" result="shadowOffsetOuter1"></feOffset>
            <feGaussianBlur stdDeviation="2" in="shadowOffsetOuter1" result="shadowBlurOuter1"></feGaussianBlur>
            <feColorMatrix values="0 0 0 0 0   0 0 0 0 0   0 0 0 0 0  0 0 0 0.5 0" type="matrix" in="shadowBlurOuter1" result="shadowMatrixOuter1"></feColorMatrix>
            <feMerge>
                <feMergeNode in="shadowMatrixOuter1"></feMergeNode>
                <feMergeNode in="SourceGraphic"></feMergeNode>
            </feMerge>
        </filter>
    </defs>
    <g id="Page-1" stroke="none" stroke-width="1" fill="none" fill-rule="evenodd">
        <g id="Sketch-icons-" transform="translate(-417.000000, -73.000000)">
            <g id="coloricons" transform="translate(421.649100, 67.379044)">
                <g id="dog" filter="url(#filter-1)" transform="translate(-0.000000, 6.956912)">
                    <path d="M42.1840855,17.7237514 C42.1840855,27.184967 34.4524145,34.8549627 24.9151203,34.8549627 C15.3771733,34.8549627 7.64550238,27.184967 7.64550238,17.7237514 C7.64550238,8.26253589 15.3771733,0.592540194 24.9151203,0.592540194 C34.4524145,0.592540194 42.1840855,8.26253589 42.1840855,17.7237514" id="Fill-63" fill="#EDD7A4"></path>
                    <path d="M18.7991101,14.0325174 C18.7991101,14.994181 18.0131483,15.7745209 17.0430991,15.7745209 C16.0730498,15.7745209 15.2864352,14.994181 15.2864352,14.0325174 C15.2864352,13.0695587 16.0730498,12.2898665 17.0430991,12.2898665 C18.0131483,12.2898665 18.7991101,13.0695587 18.7991101,14.0325174" id="Fill-64" fill="#4A4A4A"></path>
                    <path d="M34.6064735,14.0325174 C34.6064735,14.994181 33.8205117,15.7745209 32.8504625,15.7745209 C31.8804132,15.7745209 31.0937986,14.994181 31.0937986,14.0325174 C31.0937986,13.0695587 31.8804132,12.2898665 32.8504625,12.2898665 C33.8205117,12.2898665 34.6064735,13.0695587 34.6064735,14.0325174" id="Fill-65" fill="#4A4A4A"></path>
                    <path d="M14.7106725,3.90493702 L14.7113253,3.90364185 C8.78201362,3.90364185 0.0874741563,12.4569434 0.0874741563,18.3389571 C0.0874741563,24.2209709 3.88803041,26.0465127 9.81734207,26.0465127 L9.81864765,26.0426272 C8.43603375,23.5792142 7.64550238,20.7434399 7.64550238,17.7237514 C7.64550238,12.0496124 10.4277028,7.02305837 14.7106725,3.90493702" id="Fill-66" fill="#A38686"></path>
                    <path d="M35.5262577,3.90364185 L35.6091623,4.27794593 C39.6120842,7.41549482 42.1840855,12.2704389 42.1840855,17.7237514 C42.1840855,20.5252038 41.5019176,23.1673502 40.2994744,25.5018938 L40.4202409,26.0465127 C46.3495526,26.0465127 50.1507616,24.2209709 50.1507616,18.3389571 C50.1507616,12.4569434 41.4555694,3.90364185 35.5262577,3.90364185" id="Fill-67" fill="#A38686"></path>
                    <path d="M28.5041719,23.573386 L28.5041719,28.2612531 C28.5041719,30.1994748 26.9054838,31.7860578 24.9516767,31.7860578 C22.9972168,31.7860578 21.3985287,30.1994748 21.3985287,28.2612531 L21.3985287,23.5597867 C23.4026008,23.4548779 24.9516767,22.7263449 24.9516767,21.0413289 C24.9516767,22.7269925 26.5000998,23.4548779 28.5054775,23.5597867 L28.5041719,23.573386" id="Fill-68" fill="#F27794"></path>
                    <path d="M30.9619346,21.3411608 C30.6649141,21.2764023 30.3691993,21.4648495 30.3045728,21.7601482 C30.121791,22.5961803 29.1537002,23.1576364 27.8957696,23.1576364 C27.0007914,23.1576364 25.4993694,22.9912071 25.4993694,21.8767135 L25.4993694,20.5472217 C25.4993694,20.5148424 25.4863135,20.4869963 25.4804384,20.4559122 C26.1880651,20.2305526 26.7031182,19.581025 26.7031182,18.8045707 C26.7031182,17.8422595 25.9165036,17.0619197 24.9464544,17.0619197 C23.9764051,17.0619197 23.1904433,17.8422595 23.1904433,18.8045707 C23.1904433,19.581025 23.7054964,20.2312002 24.4124703,20.4559122 C24.407248,20.4869963 24.3941921,20.5148424 24.3941921,20.5472217 L24.3941921,21.8767135 C24.3941921,22.9912071 22.8927701,23.1576364 21.9977919,23.1576364 C20.7392086,23.1576364 19.7711177,22.5961803 19.5883359,21.7601482 C19.5237095,21.4648495 19.2260362,21.2757547 18.9316269,21.3411608 C18.6333009,21.4052717 18.4433383,21.6973325 18.5086176,21.9932788 C18.8043324,23.3454361 20.2065301,24.2539977 21.9977919,24.2539977 C23.3660444,24.2539977 24.3719972,23.9237294 24.9464544,23.3195327 C25.5209115,23.9237294 26.5268643,24.2539977 27.8957696,24.2539977 C29.6863786,24.2539977 31.0885763,23.3454361 31.3849439,21.9932788 C31.4495704,21.6973325 31.2602606,21.4052717 30.9619346,21.3411608" id="Fill-69" fill="#4A4A4A"></path>
                </g>
            </g>
        </g>
    </g>
</svg>